<?xml version="1.0" encoding="utf-8"?>
<!DOCTYPE svg PUBLIC "-//W3C//DTD SVG 1.1//EN" "http://www.w3.org/Graphics/SVG/1.1/DTD/svg11.dtd">
<svg version="1.1" xmlns="http://www.w3.org/2000/svg" xmlns:xlink="http://www.w3.org/1999/xlink"
    x="0px" y="0px"
    width="1408.57px" height="1539.082px" viewBox="0 0 1408.57 1539.082"
    enable-background="new 0 0 1408.57 1539.082"
    xml:space="preserve">

<defs>
  <mask id="remainingSpaceMask">
    <rect x="-24.254" y="-26.2" width="1432.824" height="1610.2" fill="white"/>
    <g>
     <path fill="black" d="M1408.57,414.747l-573.197,0c-4.4,0-10.546,2.546-13.657,5.657l-16.756,16.756H485.549
          c-4.4,0-7.999,3.6-7.998,8l0.12,415.049c0.001,4.4,2.548,10.546,5.659,13.657l33.186,33.187c0,0,5.657,9.257,5.657,13.657
          l0,98.167c0,4.4-2.544,10.547-5.654,13.659L412.96,1135.732c-3.11,3.112-5.656,9.259-5.657,13.659l-0.022,71.437
          c-0.002,4.4,2.543,10.546,5.654,13.657l144.678,144.678c0,0,5.657,9.257,5.657,13.657l0,190.99L-24.254,1584
          l0-1610.2l46.721,0c4.4,0,8.337,0,8.75,0s4.35,0,8.75,0h1.001c4.4,0,8,3.6,8,8v169.333c0,4.4,3.6,8.004,8,8.01l113.958,0.146
          c4.399,0.006,10.541,2.561,13.646,5.678l243.448,244.357c3.105,3.118,9.246,5.665,13.646,5.661l211.426-0.178
          c4.4-0.004,10.547-2.552,13.659-5.662l133.644-117.706c3.112-3.11,5.658-9.255,5.658-13.655V0h473.914c4.4,0,11.6,0,16,0h93.333
          c4.4,0,8.01,3.6,8.022,8L1408.57,8z"/>
      <path fill="black" d="M1046.374,930.592l125.436,125.436c3.111,3.111,5.657,9.257,5.657,13.657v95.188
          c0,4.4-2.546,10.546-5.657,13.657L723.624,1626.716c-3.111,3.112-2.057,5.723,2.342,5.803l536.002,9.777
          c4.399,0.081,7.999-3.454,7.999-7.854v-2c0-4.4,3.6-7.934,7.999-7.854l131.002,2.391c4.399,0.081,7.999-3.454,7.999-7.854
          v-93.75c0-4.4,0-11.6,0-16v-480.5c0-4.4,0.031-11.6,0.07-16l1.859-212c0.039-4.4-3.53-8-7.93-8h-50
          c-4.4,0-10.546,2.546-13.657,5.657L1183.125,971.342c-3.111,3.111-8.203,3.111-11.314,0l-36.186-36.186
          c-3.111-3.111-3.113-8.204-0.003-11.316l164.692-164.692c3.11-3.113,9.254-5.66,13.654-5.66h100c4.4,0,8-3.6,8-8v-9.834
          c0-4.4-3.6-8-8-8h-156.501c-4.4,0-10.532,2.559-13.626,5.687l-29.311,29.626c-3.094,3.128-5.626,9.287-5.626,13.687v52.688
          c0,4.4-2.546,10.546-5.657,13.657l-0.623,0.623c-3.111,3.111-9.257,5.657-13.657,5.657h-53.125c-4.4,0-10.546,2.546-13.657,5.657
          l-75.811,75.811C1043.263,922.389,1043.263,927.481,1046.374,930.592z"/>
    </g>
  </mask>
</defs>

<rect x="-24.254" y="-26.2" width="1432.824" height="1610.2" fill="#FFFF00" mask="url(#remainingSpaceMask)"/>




<g id="L_Line">
    <path fill="none" stroke="#8C8C8C" stroke-width="8" d="M1019.551,1056.583L812.125,849.156
        c-3.111-3.111-9.257-5.657-13.657-5.657H202.134"/>
</g>

<g id="G_Line">
  <path
    fill="none"
    stroke="#00FF00"
    stroke-width="8"
    d="M523.772,691.803
       L510.319,705.256
       Q506.076,709.499 506.076,715.499
       L506.076,814.878
       Q506.076,818.178 510.319,822.421
       L658.286,970.388
       Q662.529,974.631 662.529,977.931
       L662.529,1095.832
       Q662.529,1099.132 658.286,1103.375
       L554.364,1207.297
       Q549.712,1211.949 549.712,1224.666
       Q549.712,1250.755 637.719,1250.755
       Q637.719,1250.755 660.209,1252.749
       Q665.675,1259.636 707.083,1301.044"
  />
</g>


<g id="M_Line">
  <path
    fill="none"
    stroke="#FF7F00"
    stroke-width="8"
    d="M969.967,614.312 
       L658.134,614.312
       Q605.009,614.312 554.627,677.089
       C552.294,679.422,547.684,681.331,544.384,681.331
       L315.969,681.291
       L304.967,681.291
       Q304.967,700 304.967,857.999
       Q304.967,890 367.301,906.499
       L417.218,906.499
       Q429.781,906.499 441.344,922.625
       L582.842,922.625
       L684.134,922.625
       Q689,916 694.821,910.228
       L862.342,742.708"
  />
</g>






        	
</svg>